<?xml version="1.0" standalone="no"?><!DOCTYPE svg PUBLIC "-//W3C//DTD SVG 1.1//EN" "http://www.w3.org/Graphics/SVG/1.1/DTD/svg11.dtd"><svg t="1593430695082" class="icon" viewBox="0 0 1024 1024" version="1.1" xmlns="http://www.w3.org/2000/svg" p-id="769" xmlns:xlink="http://www.w3.org/1999/xlink" width="200" height="200"><defs><style type="text/css"></style></defs><path d="M300.9 540.6c1.3 1.3 2.60000001 2.4 4 3.4L668.1 908c14.6 14.6 38.4 14.6 53.00000001 0 14.6-14.6 14.6-38.5-1e-8-53.10000001l-340.4-341.19999999L721.1 173c14.6-14.6 14.6-38.4 0-53-14.6-14.6-38.4-14.6-53 0l-362.9 363.3c-1.5 1.1-2.9 2.3-4.3 3.7-7.4 7.4-11 17.1-10.9 26.8-0.1 9.7 3.6 19.4 10.9 26.8z" p-id="770"></path></svg>